<svg width="797" height="489" viewBox="0 0 797 489" fill="none" xmlns="http://www.w3.org/2000/svg">
<path opacity="0.5" fill-rule="evenodd" clip-rule="evenodd" d="M-68.4209 615.337C-144.184 580.844 -244.209 576.11 -288.876 511.336C-333.457 446.687 -288.98 378.464 -277.197 312.578C-266.199 251.084 -259.075 189.941 -222.553 140.484C-178.209 80.4361 -136.544 -5.29197 -47.0791 0.965048C43.8731 7.32607 90.3243 125.303 175.95 168.355C268.604 214.939 387.68 188.021 462.543 257.196C542.224 330.824 592.006 443.867 563.9 526.83C536.014 609.147 415.202 619.803 327.929 654.556C264.789 679.698 202.614 708.211 127.159 700.744C57.5757 693.859 -2.00259 645.575 -68.4209 615.337Z" fill="#2A5EB9"/>
<path fill-rule="evenodd" clip-rule="evenodd" d="M326.045 407.374C399.712 492.174 627.106 493.762 599.23 606.37C572.722 713.454 345.638 635.316 250.594 712.174C144.628 797.865 192.92 988.067 63.7996 1039.35C-52.4744 1085.53 -155.643 974.028 -244.452 908.791C-323.148 850.982 -411.445 784.303 -412.758 689.28C-414.013 598.437 -277.34 538.199 -250.824 447.567C-221.162 346.186 -346.304 222.47 -255.033 150.19C-165.492 79.28 -42.6033 178.668 66.8533 195.99C138.864 207.385 224.073 191.92 275.933 234.214C325.441 274.591 284.98 360.103 326.045 407.374Z" fill="#FAE8A7"/>
<path fill-rule="evenodd" clip-rule="evenodd" d="M-286.978 411.145C-246.184 364.097 -169.369 384.718 -111.722 361.168C-50.9987 336.361 -5.47725 251.934 57.4532 270.439C120.613 289.011 106.605 390.455 151.53 438.579C203.548 494.302 312.748 493.611 334.101 566.788C354.886 638.018 306.35 721.189 246.983 765.7C191.659 807.179 114.52 782.187 45.3814 783.256C1.61888 783.932 -38.7884 777.087 -82.1003 770.787C-133.72 763.278 -190.714 774.516 -232.187 742.879C-278.272 707.724 -304.256 651.303 -313.701 594.115C-323.997 531.777 -328.369 458.883 -286.978 411.145Z" fill="#2A5EB9"/>
<circle cx="457" cy="382" r="10" fill="#FAE8A7"/>
<circle cx="787" cy="402" r="8" stroke="white" stroke-width="4"/>
<circle cx="595.5" cy="453.5" r="20.5" stroke="white" stroke-width="4"/>
<circle cx="787" cy="402" r="8" stroke="white" stroke-width="4"/>
<circle cx="206" cy="105" r="8" stroke="white" stroke-width="4"/>
</svg>
