<svg width="693" height="408" viewBox="0 0 693 408" fill="none" xmlns="http://www.w3.org/2000/svg">
<path opacity="0.5" fill-rule="evenodd" clip-rule="evenodd" d="M713.545 -259.433C791.233 -233.75 891.649 -243.934 939.795 -180.772C987.848 -117.733 946.907 -37.209 938.582 35.7882C930.812 103.921 926.903 171.08 892.938 230.109C851.699 301.779 814.496 400.788 724.576 407.712C633.16 414.75 580.422 294.372 492.405 260.948C397.165 224.782 279.34 272.083 200.724 208.786C117.048 141.413 61.2346 26.8747 85.004 -67.0725C108.588 -160.289 229.008 -190.283 314.571 -241.186C376.473 -278.013 437.232 -318.333 513.187 -321.807C583.23 -325.01 645.439 -281.949 713.545 -259.433Z" fill="#2A5EB9"/>
<path fill-rule="evenodd" clip-rule="evenodd" d="M513.398 179.807C424.877 110.655 201.375 152.571 207.207 36.7108C212.753 -73.4663 450.587 -40.1846 529.184 -133.796C616.813 -238.164 533.049 -415.625 649.983 -490.648C755.283 -558.206 877.866 -468.485 977.509 -421.43C1065.81 -379.733 1165.22 -331.165 1184.68 -238.145C1203.28 -149.218 1080.64 -63.9624 1071.94 30.068C1062.21 135.25 1208.7 232.758 1132.93 321.155C1058.59 407.875 918.971 333.815 808.222 337.739C735.36 340.321 654.68 371.792 595.691 340.192C539.377 310.026 562.743 218.355 513.398 179.807Z" fill="#FAE8A7"/>
<path fill-rule="evenodd" clip-rule="evenodd" d="M938.201 161.649C883.802 191.956 818.632 146.364 756.41 148.833C690.866 151.433 619.271 215.263 566.43 176.397C513.397 137.39 561.176 46.8125 535.366 -13.7516C505.481 -83.8787 402.598 -120.487 407.493 -196.559C412.258 -270.606 486.258 -332.227 557.25 -353.811C623.407 -373.925 687.39 -324.114 752.744 -301.53C794.112 -287.234 829.759 -267.014 868.322 -246.314C914.283 -221.643 971.691 -212.762 999.882 -168.872C1031.21 -120.104 1036.38 -58.2027 1025.75 -1.22387C1014.16 60.8871 993.396 130.898 938.201 161.649Z" fill="#2A5EB9"/>
<circle cx="240.5" cy="145.5" r="20.5" stroke="white" stroke-width="4"/>
<circle cx="483" cy="337" r="10" fill="#FAE8A7"/>
<circle cx="10" cy="123" r="10" fill="#FAE8A7"/>
</svg>
